<?xml version="1.0" standalone="no"?><!DOCTYPE svg PUBLIC "-//W3C//DTD SVG 1.1//EN" "http://www.w3.org/Graphics/SVG/1.1/DTD/svg11.dtd"><svg t="1620982742504" class="icon" viewBox="0 0 1024 1024" version="1.1" xmlns="http://www.w3.org/2000/svg" p-id="1030" xmlns:xlink="http://www.w3.org/1999/xlink" width="200" height="200"><defs><style type="text/css"></style></defs><path d="M798.2 421.2c-5.2 0-10.4-2-14.4-6.1L587.7 212.7c-7.7-7.9-7.5-20.6 0.4-28.3 7.9-7.7 20.6-7.5 28.3 0.4l196.2 202.4c7.7 7.9 7.5 20.6-0.4 28.3-3.9 3.8-9 5.7-14 5.7z" fill="#9093A0" p-id="1031"></path><path d="M238.6 222.6c0-31.4 25.5-56.8 56.8-56.8h276.8c31.3 0 56.8 25.5 56.8 56.8v128.8c0 9.3 7.5 16.8 16.8 16.8h122.5c31.4 0 56.8 25.5 56.8 56.8v357.8c0 31.4-25.5 56.8-56.8 56.8h-382c-1.2 0-2.4-0.1-3.5-0.3h-80.6c-35 0-63.6-28.5-63.6-63.6V222.6z m40 319.7v233.5c0 13 10.6 23.6 23.6 23.6h103.3v0.3h362.9c9.3 0 16.8-7.5 16.8-16.8V425c0-9.3-7.5-16.8-16.8-16.8H645.9c-31.3 0-56.8-25.5-56.8-56.8V222.6c0-9.3-7.5-16.8-16.8-16.8H295.5c-9.3 0-16.8 7.5-16.8 16.8v319.7z" fill="#9093A0" p-id="1032"></path><path d="M646 503.5c11 0 20-9 20-20s-9-20-20-20H417.8c-11 0-20 9-20 20s9 20 20 20H646zM646 659.5c11 0 20-9 20-20s-9-20-20-20H417.8c-11 0-20 9-20 20s9 20 20 20H646z" fill="#9093A0" p-id="1033"></path></svg>